<?xml version="1.0" encoding="utf-8"?>
<!-- Generator: Adobe Illustrator 27.2.0, SVG Export Plug-In . SVG Version: 6.00 Build 0)  -->
<svg version="1.1" xmlns="http://www.w3.org/2000/svg" xmlns:xlink="http://www.w3.org/1999/xlink" x="0px" y="0px"
	 viewBox="0 0 1000 1000" style="enable-background:new 0 0 1000 1000;" xml:space="preserve">
<style type="text/css">
	.st0{fill-rule:evenodd;clip-rule:evenodd;fill:#D4D8C8;}
	.st1{fill-rule:evenodd;clip-rule:evenodd;fill:#E5E5DF;}
	.st2{fill-rule:evenodd;clip-rule:evenodd;fill:#8CD0E4;}
	.st3{fill-rule:evenodd;clip-rule:evenodd;fill:#5EB0DA;}
	.st4{fill-rule:evenodd;clip-rule:evenodd;fill:#64BADA;}
	.st5{fill-rule:evenodd;clip-rule:evenodd;fill:#429ADA;}
	.st6{fill:#429ADA;}
	.st7{font-family:'ShowcardGothic-Reg';}
	.st8{font-size:152.9001px;}
	.st9{fill-rule:evenodd;clip-rule:evenodd;fill:none;}
	.st10{fill:url(#SVGID_1_);}
	.st11{fill:#F8F8FA;}
	.st12{font-size:52.0146px;}
</style>
<g id="Слой_1">
	<path class="st0" d="M295,118.68c-8.12-0.61-14.55-7.09-14.6-15.04c-0.03-4.21,1.72-8,4.57-10.78c2.88-2.75,6.81-4.48,11.2-4.5
		L713.7,86c8.76-0.05,15.92,6.71,15.97,15.1c0.03,4.21-1.72,8-4.57,10.78c-2.58,2.47-5.99,4.1-9.83,4.43
		c72.52,55.99,118.99,140.57,119.61,235.45c1.1,169.75-144.95,308.17-326.24,309.19s-329.11-135.73-330.2-305.48
		C177.82,260.58,223.2,175.48,295,118.68z"/>
	<path class="st1" d="M506.79,87.15v573.78c-180.44,0.09-327.25-136.31-328.35-305.47c-0.62-94.89,44.75-179.99,116.56-236.8
		c-8.11-0.61-14.55-7.08-14.6-15.03c-0.02-4.21,1.72-8.02,4.57-10.77c2.87-2.76,6.81-4.49,11.21-4.51L506.79,87.15z"/>
</g>
<g id="Слой_2">
	<path class="st2" d="M797.07,347.05c0.97,148.67-127.85,269.92-287.71,270.81h-2.57c-158.67-0.37-287.66-119.64-288.64-267.52
		c-0.3-46.58,12.13-90.45,34.27-128.78h510.03c12.46,21.34,21.89,44.43,27.81,68.76c0.6,2.5,1.15,4.98,1.67,7.48
		C795.2,313.76,796.97,330.22,797.07,347.05z"/>
	<path class="st3" d="M796.77,347.7c0.97,148.67-127.85,269.92-287.71,270.81h-2.27v-396.3h255.37
		c12.46,21.34,21.89,44.43,27.81,68.76c0.6,2.5,1.15,4.98,1.67,7.48C794.9,314.42,796.67,330.87,796.77,347.7z"/>
</g>
<g id="Слой_3">
	<path class="st4" d="M624.72,407.53c-29.24,27.13-99.59,74.58-184.59,7.56c-2.24-1.77-5.49-1.85-7.78-0.13l-25.95,19.47
		c-3,2.24-6.56,3.32-10.13,3.32c-4.74,0-9.46-1.94-12.68-5.68c-5.59-6.54-4.47-16.1,2.52-21.36l29.73-22.3l-30-23.19
		c-3.89-2.99-5.92-7.34-5.92-11.73c0-3.39,1.22-6.82,3.72-9.65c5.69-6.47,15.92-7.39,22.84-2.06l28.84,22.29
		c2.29,1.77,5.61,1.74,7.85-0.09c37.06-30.22,106.42-64.15,182.33,12.97C633.93,385.54,633.53,399.38,624.72,407.53z"/>
	<path class="st5" d="M624.72,407.53c-21.14,19.63-63.8,49.88-117.94,39.76v-115.2c34.25-6.99,75.4,0.89,118.71,44.87
		C633.93,385.54,633.53,399.38,624.72,407.53z"/>
</g>
<g id="Слой_4">
	<text transform="matrix(0.7519 0 0 1 117.9609 793.915)" class="st6 st7 st8">TamagoTchii</text>
	<rect x="414.54" y="854.74" class="st9" width="8.92" height="22.68"/>
	<linearGradient id="SVGID_1_" gradientUnits="userSpaceOnUse" x1="513.0256" y1="817.5469" x2="513.0256" y2="890">
		<stop  offset="0" style="stop-color:#8CD0E4"/>
		<stop  offset="0.3943" style="stop-color:#71BDDE"/>
		<stop  offset="0.6357" style="stop-color:#5EB0DA"/>
		<stop  offset="0.7906" style="stop-color:#5BAEDA"/>
		<stop  offset="0.9018" style="stop-color:#52A6DA"/>
		<stop  offset="0.9992" style="stop-color:#429ADA"/>
		<stop  offset="1" style="stop-color:#429ADA"/>
	</linearGradient>
	<path class="st10" d="M668.5,890H357.55c-8.56,0-15.5-6.94-15.5-15.5v-41.45c0-8.56,6.94-15.5,15.5-15.5H668.5
		c8.56,0,15.5,6.94,15.5,15.5v41.45C684,883.06,677.06,890,668.5,890z"/>
	<text transform="matrix(1.0292 0 0 1 361.9854 872.7686)" class="st11 st7 st12">AQUARIIUM</text>
</g>
</svg>
